<svg xmlns="http://www.w3.org/2000/svg" fill="none" viewBox="24 5 102 22"><path fill="var(--paymentMethodLogoColor, #000)" fill-rule="evenodd" d="M120.467 8.156l3.012 1.723c2.028 1.167 2.028 4.091 0 5.266l-3.012 1.724-3.055 1.75c-2.019 1.166-4.543-.297-4.543-2.63v-.46a.6.6 0 00-.897-.523l-2.785 1.602-2.777 1.592c-.4.227-.4.81 0 1.036l2.777 1.593 2.785 1.602a.6.6 0 00.897-.523v-.931c0-.453.487-.74.879-.514l1.419.81a.59.59 0 01.304.522v.392c0 2.333-2.524 3.786-4.543 2.629l-3.056-1.75-3.011-1.723c-2.028-1.167-2.028-4.1 0-5.266l3.011-1.724 3.056-1.75c2.019-1.166 4.543.296 4.543 2.63v.46a.6.6 0 00.897.523l2.785-1.602 2.777-1.593c.4-.226.4-.81 0-1.035l-2.777-1.593-2.785-1.602a.6.6 0 00-.897.522v.932c0 .452-.487.74-.879.513l-1.419-.81a.59.59 0 01-.304-.521v-.392c0-2.333 2.524-3.786 4.543-2.629l3.055 1.75zM96.67 25.016l7.05-14.562h-2.916l-2.907 6.11-2.663-6.11H92.23l4.152 9.122-2.638 5.44h2.925zm-8.034-9.392c0-1.74-1.262-2.96-2.811-2.96-1.55 0-2.811 1.245-2.811 2.96 0 1.697 1.262 2.96 2.811 2.96 1.55 0 2.811-1.219 2.811-2.96zm.027 5.17v-1.34c-.766.931-1.907 1.506-3.264 1.506-2.838 0-4.988-2.272-4.988-5.336 0-3.038 2.237-5.353 5.048-5.353 1.323 0 2.438.583 3.204 1.489v-1.306h2.541v10.34h-2.541zm-58.249-8.13c1.55 0 2.811 1.22 2.811 2.96 0 1.741-1.262 2.96-2.811 2.96-1.55 0-2.812-1.262-2.812-2.96 0-1.715 1.263-2.96 2.812-2.96zm2.838 6.79v1.34h2.541v-10.34h-2.541v1.306a4.135 4.135 0 00-3.204-1.489c-2.811 0-5.048 2.315-5.048 5.353 0 3.064 2.15 5.336 4.988 5.336 1.357 0 2.498-.575 3.264-1.506zm43.616-3.83c0-1.671-1.262-2.96-2.812-2.96-1.549 0-2.811 1.245-2.811 2.96 0 1.697 1.262 2.96 2.811 2.96 1.55 0 2.812-1.28 2.812-2.96zm-8.19 9.383V10.454h2.54v1.34c.767-.948 1.907-1.532 3.265-1.532 2.794 0 4.987 2.298 4.987 5.336 0 3.038-2.237 5.353-5.048 5.353-1.306 0-2.376-.513-3.125-1.384v5.44h-2.62zm-2.351-14.745c-1.593 0-2.237 1.202-2.237 1.202h-.009v-1.01H61.54v10.332h2.628v-6.12c0-1.079.557-1.88 1.436-2.001.88-.122 1.837.47 1.837.47v-2.638s-.435-.235-1.114-.235zm-8.825 4.43c-.183-1.34-1.28-2.15-2.568-2.15-1.28 0-2.341.784-2.602 2.15h5.17zm-5.197 1.611c.183 1.532 1.28 2.402 2.673 2.402 1.096 0 1.94-.513 2.437-1.34h2.672c-.618 2.194-2.585 3.595-5.17 3.595-3.125 0-5.319-2.194-5.319-5.318 0-3.125 2.316-5.38 5.38-5.38 3.08 0 5.318 2.272 5.318 5.38 0 .226-.018.452-.061.661h-7.93zm-5.292.992c0 .87.252 1.201 1.14 1.201h.514v2.298h-1.341c-2.106 0-2.916-.914-2.916-3.02v-5.066h-3.36v8.086h-2.602v-8.086h-1.445v-2.246h1.445V9.078c0-2.15 1.018-2.855 3.168-2.855h1.254v2.002h-.575c-.914 0-1.245.331-1.245 1.201v1.027h3.36V7.93h2.603v2.524h1.636v2.255h-1.636v4.587z" clip-rule="evenodd"></path><title>Afterpay</title></svg>