<svg xmlns="http://www.w3.org/2000/svg" fill="none" viewBox="32 0 86 30"><path fill="var(--paymentMethodLogoColor, #D13239)" fill-rule="evenodd" d="M42.293 13.093c.237.096.452.219.6.377.114.118.202.24.277.376.21.386.25.79.245 1.056 0 .193-.026.316-.026.316l-.035.271c-.053.382-.154 1.1-.255 1.7-.091.544-.201.99-.201.99s-.267 1.206-1.266 1.736c-1 .53-2.41.473-2.41.473l-3.62-.017-.735 4.469H33l1.998-12.067h5.227s.14 0 .36.009c.236.008.57.035.91.096.273.048.549.118.798.215zm-1.222 4.644c.219-1.148.385-2.116.385-2.138l.003-.019c.006-.05.025-.189.01-.349a.743.743 0 00-.14-.394c-.07-.088-.289-.145-.565-.18a8.931 8.931 0 00-1.003-.061c-.259-.005-.443 0-.443 0l-2.738-.01-.666 4.01 3.023.009s.688.026 1.328-.11c.385-.083.723-.32.806-.758zm16.172-1.608l-6.853.009-.276 1.7H54.5L49.006 23.1l-.298 1.74 7.085-.005.28-1.682-4.81.009 5.73-5.473.25-1.56zm9.294-3.356h1.796L66.322 24.84l-1.801-.005 2.016-12.062zm11.308 3.36l-1.722.005L77 24.84l2.085-.009 2.677-6.09.614 6.09h2.12l3.795-8.697h-1.788l-2.646 6.147-.627-6.152-2.125-.004-2.65 6.134-.61-6.125zm-14.625.075c-.504-.162-1.376-.197-2.117-.188-.714.009-1.043.044-1.31.1 0 0-1.27.185-1.993 1.078-.723.894-.938 2.848-.938 2.848s-.43 2.16-.302 2.884c.127.718.35 1.389 1.165 1.7.815.315 1.507.297 1.507.297s1.455.114 2.55-.144c1.096-.259 1.674-1.03 1.674-1.03s.259-.333.443-.727a3.51 3.51 0 00.247-.694l.002-.012.114-.468-1.862.004s-.1 1.231-1.108 1.345c-.917.104-1.446.077-1.68.064l-.06-.003H59.5c-.285-.006-1.211-.024-1.13-.863 0-.013 0-.03.005-.057.048-1.025.162-1.292.162-1.292l5.85-.018.249-1.446c.289-1.638.083-2.887-1.415-3.378zm-.39 3.172l-4.01-.004.158-.635s.14-.5.416-.71c.28-.21.636-.25.969-.28.333-.031 1.222-.097 1.945.052.241.048.47.184.53.386.14.473-.008 1.191-.008 1.191zm-4.448 2.98l-.001.014v-.009l.001-.005zm-.001.014v.005a.122.122 0 00-.003.02c-.003.047 0 .012.002-.015l.001-.01zm11.034-.01zm0 .007v.002c-.002.026-.004.087-.004.03 0-.006 0-.012.002-.019l.002-.013zm2.725-6.347c.74-.009 1.613.026 2.117.188 1.498.487 1.704 1.74 1.415 3.383l-.25 1.446-5.85.017s-.113.268-.161 1.293c-.005.026-.005.044-.005.057-.081.837.849.856 1.132.862l.051.001.094.003c.25.01.772.03 1.646-.069 1.008-.114 1.108-1.345 1.108-1.345l1.862-.004-.113.469-.003.011a3.514 3.514 0 01-.247.694 4.34 4.34 0 01-.443.727s-.578.771-1.673 1.03c-1.096.259-2.55.145-2.55.145s-.693.017-1.508-.298c-.815-.311-1.038-.982-1.165-1.7-.127-.723.302-2.883.302-2.883s.215-1.955.938-2.848c.723-.894 1.993-1.078 1.993-1.078.268-.057.596-.092 1.31-.101zm-2.3 3.352l4.01.004s.148-.723.008-1.192c-.061-.201-.29-.337-.53-.385-.723-.15-1.613-.083-1.946-.053-.333.031-.692.07-.968.28-.276.211-.416.71-.416.71l-.158.636zm20.52-3.238L91.51 22.5l3.256-6.366 1.831.017-4.692 9.092s-.85 1.647-1.376 2.064c-.526.416-.85.604-1.28.648l-.115.012c-.349.037-.528.055-.9-.012l-.44-.079.273-1.625s.727.135 1.156-.036c.434-.17.78-.907.78-.907l.22-.367-1.696-8.807 1.831.004zm-44.246.596c.583-.32 1.266-.605 1.99-.605h1.042l-.298 1.683-.99.004c-1.42 0-2.147 1.205-2.322 2.178l-.85 4.797h-1.92L44.3 16.13h1.915l-.101.605z" clip-rule="evenodd"></path><path fill="var(--paymentMethodLogoColor, #B3B2B1)" fill-rule="evenodd" d="M83.248 4.479L85.474.005s4.876-.096 9.083.556c4.206.649 8.053 1.648 7.97 1.692L91.862 7.83s-2.493-1.577-5.587-2.545a54.442 54.442 0 00-3.027-.806zm-14.1-2.103l.464 2.607s2.147-.57 4.72-.877c3.303-.451 6.821.031 6.821.031L82.476.11s-4 .268-7.019.828c-3.014.561-6.31 1.438-6.31 1.438zM59.22 9.255L56.55 7.458s2.414-1.371 5.626-2.65c3.208-1.28 4.92-1.815 4.92-1.815l.544 2.546s-3.089 1.034-4.86 1.871c-1.83.78-3.561 1.845-3.561 1.845zm-6.612 4.512h-5.753s2.243-1.717 3.373-2.457c1.166-.802 3.913-2.502 3.913-2.502l3.251 1.52s-1.665 1.056-2.58 1.726a72.058 72.058 0 00-2.204 1.713zm44.656 3.234l1.889.005.114-.732s.201-1.323.653-1.577c.144-.084.376-.158.644-.206.495-.088 1.121-.097 1.634-.08l.043.002c.752.025 1.054.035 1.837.126.797.092.596.863.596.863l-.158 1.152s-.07.517-.254.837c-.162.285-.609.478-.868.561-.622.202-2.751.745-2.751.745l-1.674.482s-1.03.298-1.604.933a3.84 3.84 0 00-.885 1.74c-.079.377-.521 2.983-.521 2.983l9.035.005.302-1.805-7.147.008.128-.736s.083-.758.39-1.007a.9.9 0 00.043-.04c.08-.074.19-.176.67-.346.343-.123 1.508-.434 1.508-.434l2.695-.736s1.472-.377 2.05-1.183c.579-.802.802-2.34.802-2.34s.158-1.494.035-1.963c-.118-.468-.561-1.03-1.1-1.27-.539-.241-1.099-.381-2.725-.36-1.626.022-2.432.097-3.255.404-.824.302-1.302.854-1.604 1.634-.329.74-.522 2.335-.522 2.335zm17.01 3.356l1.266-7.588h-2.243l-6.985 7.5-.315 1.902h6.108l-.447 2.664 1.875.005.443-2.669 1.73.005.311-1.819h-1.743zm-1.867.005l-3.948-.005 4.807-5.122-.859 5.127zm-16.29-9.539l-2.345-1.779 13.355-5.152.103.046c1.701.772 2.647 1.202 4.314 2.285.666.433 1.551 1.126 1.774 1.345.609.609 1.192 1.196 1.512 1.748.513.885.552 1.507.552 1.507H96.116z" clip-rule="evenodd"></path><title>Przelewy24</title></svg>